<svg width="432" height="38" viewBox="0 0 432 38" fill="none" xmlns="http://www.w3.org/2000/svg">
<path fill-rule="evenodd" clip-rule="evenodd" d="M134.657 8.59013V5.29413H133.441V8.59013H134.657ZM50.544 33.9341V26.0941H50.608C51.1627 26.9048 51.872 27.5181 52.736 27.9341C53.6 28.3501 54.544 28.5581 55.568 28.5581C56.784 28.5581 57.8453 28.3235 58.752 27.8541C59.6587 27.3848 60.416 26.7555 61.024 25.9661C61.632 25.1768 62.0853 24.2701 62.384 23.2461C62.6827 22.2221 62.832 21.1555 62.832 20.0461C62.832 18.8728 62.6827 17.7475 62.384 16.6701C62.0853 15.5928 61.6267 14.6488 61.008 13.8381C60.3893 13.0275 59.6107 12.3768 58.672 11.8861C57.7333 11.3955 56.6133 11.1501 55.312 11.1501C54.288 11.1501 53.3493 11.3528 52.496 11.7581C51.6427 12.1635 50.9387 12.8141 50.384 13.7101H50.32V11.5981H46V33.9341H50.544ZM54.352 25.1661C53.6267 25.1661 53.008 25.0168 52.496 24.7181C51.984 24.4195 51.5733 24.0301 51.264 23.5501C50.9547 23.0701 50.7307 22.5101 50.592 21.8701C50.4533 21.2301 50.384 20.5795 50.384 19.9181C50.384 19.2355 50.448 18.5741 50.576 17.9341C50.704 17.2941 50.9227 16.7288 51.232 16.2381C51.5413 15.7475 51.9467 15.3475 52.448 15.0381C52.9493 14.7288 53.5733 14.5741 54.32 14.5741C55.0453 14.5741 55.6587 14.7288 56.16 15.0381C56.6613 15.3475 57.072 15.7528 57.392 16.2541C57.712 16.7555 57.9413 17.3261 58.08 17.9661C58.2187 18.6061 58.288 19.2568 58.288 19.9181C58.288 20.5795 58.224 21.2301 58.096 21.8701C57.968 22.5101 57.7493 23.0701 57.44 23.5501C57.1307 24.0301 56.7253 24.4195 56.224 24.7181C55.7227 25.0168 55.0987 25.1661 54.352 25.1661ZM73.2418 28.1101C72.2605 28.4088 71.2578 28.5581 70.2338 28.5581C69.4445 28.5581 68.7085 28.4621 68.0258 28.2701C67.3432 28.0781 66.7458 27.7795 66.2338 27.3741C65.7218 26.9688 65.3218 26.4568 65.0338 25.8381C64.7458 25.2195 64.6018 24.4835 64.6018 23.6301C64.6018 22.6915 64.7672 21.9181 65.0978 21.3101C65.4285 20.7021 65.8552 20.2168 66.3778 19.8541C66.9005 19.4915 67.4978 19.2195 68.1698 19.0381C68.8418 18.8568 69.5192 18.7128 70.2018 18.6061C70.8845 18.4995 71.5565 18.4141 72.2178 18.3501C72.8792 18.2861 73.4658 18.1901 73.9778 18.0621C74.4898 17.9341 74.8952 17.7475 75.1938 17.5021C75.4925 17.2568 75.6312 16.8995 75.6098 16.4301C75.6098 15.9395 75.5298 15.5501 75.3698 15.2621C75.2098 14.9741 74.9965 14.7501 74.7298 14.5901C74.4632 14.4301 74.1538 14.3235 73.8018 14.2701C73.4498 14.2168 73.0712 14.1901 72.6658 14.1901C71.7698 14.1901 71.0658 14.3821 70.5538 14.7661C70.0418 15.1501 69.7432 15.7901 69.6578 16.6861H65.1138C65.1778 15.6195 65.4445 14.7341 65.9138 14.0301C66.3832 13.3261 66.9805 12.7608 67.7058 12.3341C68.4312 11.9075 69.2472 11.6035 70.1538 11.4221C71.0605 11.2408 71.9725 11.1501 72.8898 11.1501C73.7218 11.1501 74.5645 11.2088 75.4178 11.3261C76.2712 11.4435 77.0498 11.6728 77.7538 12.0141C78.4578 12.3555 79.0338 12.8301 79.4818 13.4381C79.9298 14.0461 80.1538 14.8515 80.1538 15.8541V24.4621C80.1538 25.2088 80.1965 25.9235 80.2818 26.6061C80.3672 27.2888 80.5165 27.8008 80.7298 28.1421H76.1218C76.0365 27.8861 75.9672 27.6248 75.9138 27.3581C75.8605 27.0915 75.8232 26.8195 75.8018 26.5421C75.0765 27.2888 74.2232 27.8115 73.2418 28.1101ZM71.9298 25.5501C71.5672 25.5501 71.2152 25.5181 70.8738 25.4541C70.5325 25.3901 70.2338 25.2781 69.9778 25.1181C69.7218 24.9581 69.5192 24.7395 69.3698 24.4621C69.2205 24.1848 69.1458 23.8435 69.1458 23.4381C69.1458 23.0115 69.2205 22.6595 69.3698 22.3821C69.5192 22.1048 69.7165 21.8755 69.9618 21.6941C70.2072 21.5128 70.4952 21.3688 70.8258 21.2621C71.1565 21.1555 71.4925 21.0701 71.8338 21.0061C72.1965 20.9421 72.5592 20.8888 72.9218 20.8461C73.2845 20.8035 73.6312 20.7501 73.9618 20.6861C74.2925 20.6221 74.6018 20.5421 74.8898 20.4461C75.1778 20.3501 75.4178 20.2168 75.6098 20.0461V21.7421C75.6098 21.9981 75.5832 22.3395 75.5298 22.7661C75.4765 23.1928 75.3325 23.6141 75.0978 24.0301C74.8632 24.4461 74.5005 24.8035 74.0098 25.1021C73.5192 25.4008 72.8258 25.5501 71.9298 25.5501ZM89.5397 33.0701C88.665 33.6461 87.449 33.9341 85.8917 33.9341C85.4224 33.9341 84.9584 33.9181 84.4997 33.8861C84.041 33.8541 83.577 33.8168 83.1077 33.7741V30.0301C83.5344 30.0728 83.9717 30.1155 84.4197 30.1581C84.8677 30.2008 85.3157 30.2115 85.7637 30.1901C86.361 30.1261 86.8037 29.8915 87.0917 29.4861C87.3797 29.0808 87.5237 28.6328 87.5237 28.1421C87.5237 27.7795 87.4597 27.4381 87.3317 27.1181L81.5397 11.5981H86.3717L90.1157 22.9261H90.1797L93.7957 11.5981H98.4997L91.5877 30.1901C91.097 31.5341 90.4144 32.4941 89.5397 33.0701ZM104.59 28.5261C105.379 28.5261 106.104 28.4301 106.766 28.2381C107.427 28.0461 108.019 27.7795 108.542 27.4381C109.064 27.0968 109.507 26.7075 109.87 26.2701C110.232 25.8328 110.51 25.3688 110.702 24.8781H110.766V25.7421C110.766 26.0835 110.792 26.3981 110.846 26.6861C110.899 26.9741 111 27.2248 111.15 27.4381C111.299 27.6515 111.518 27.8221 111.806 27.9501C112.094 28.0781 112.483 28.1421 112.974 28.1421C113.315 28.1421 113.646 28.0995 113.966 28.0141V26.9901C113.582 27.0541 113.283 27.0861 113.07 27.0861C112.792 27.0861 112.579 27.0275 112.43 26.9101C112.28 26.7928 112.174 26.6381 112.11 26.4461C112.046 26.2541 112.008 26.0408 111.998 25.8061C111.987 25.5715 111.982 25.3368 111.982 25.1021V15.5341C111.982 14.2755 111.528 13.2568 110.622 12.4781C109.715 11.6995 108.27 11.3101 106.286 11.3101C104.302 11.3101 102.771 11.7635 101.694 12.6701C100.616 13.5768 100.035 14.9368 99.9495 16.7501H101.166C101.251 15.2781 101.747 14.1795 102.654 13.4541C103.56 12.7288 104.75 12.3661 106.222 12.3661C107.054 12.3661 107.758 12.4515 108.334 12.6221C108.91 12.7928 109.379 13.0275 109.742 13.3261C110.104 13.6248 110.371 13.9661 110.542 14.3501C110.712 14.7341 110.798 15.1501 110.798 15.5981C110.798 16.1741 110.766 16.6541 110.702 17.0381C110.638 17.4221 110.478 17.7368 110.222 17.9821C109.966 18.2275 109.587 18.4195 109.086 18.5581C108.584 18.6968 107.896 18.7981 107.022 18.8621L105.134 19.0221C104.472 19.0861 103.784 19.1928 103.07 19.3421C102.355 19.4915 101.704 19.7421 101.118 20.0941C100.531 20.4461 100.046 20.9261 99.6615 21.5341C99.2775 22.1421 99.0855 22.9261 99.0855 23.8861C99.0855 25.4648 99.5655 26.6328 100.526 27.3901C101.486 28.1475 102.84 28.5261 104.59 28.5261ZM101.454 26.5901C102.222 27.1768 103.278 27.4701 104.622 27.4701C106.008 27.4701 107.107 27.2195 107.918 26.7181C108.728 26.2168 109.347 25.6408 109.774 24.9901C110.2 24.3395 110.472 23.7101 110.59 23.1021C110.707 22.4941 110.766 22.0835 110.766 21.8701V18.7981C110.467 19.1608 110.014 19.4061 109.406 19.5341C108.798 19.6621 108.12 19.7581 107.374 19.8221L105.326 20.0141C104.728 20.0781 104.131 20.1688 103.534 20.2861C102.936 20.4035 102.398 20.6008 101.918 20.8781C101.438 21.1555 101.048 21.5341 100.75 22.0141C100.451 22.4941 100.302 23.1181 100.302 23.8861C100.302 25.1021 100.686 26.0035 101.454 26.5901ZM117.111 34.0301V24.7181H117.175C117.666 26.0621 118.445 27.0328 119.511 27.6301C120.578 28.2275 121.794 28.5261 123.159 28.5261C124.418 28.5261 125.511 28.3128 126.439 27.8861C127.367 27.4595 128.135 26.8675 128.743 26.1101C129.351 25.3528 129.805 24.4515 130.103 23.4061C130.402 22.3608 130.551 21.2088 130.551 19.9501C130.551 18.7981 130.402 17.6995 130.103 16.6541C129.805 15.6088 129.351 14.6915 128.743 13.9021C128.135 13.1128 127.367 12.4835 126.439 12.0141C125.511 11.5448 124.418 11.3101 123.159 11.3101C122.263 11.3101 121.469 11.4488 120.775 11.7261C120.082 12.0035 119.49 12.3501 118.999 12.7661C118.509 13.1821 118.114 13.6355 117.815 14.1261C117.517 14.6168 117.303 15.0648 117.175 15.4701H117.111V11.6941H115.895V34.0301H117.111ZM120.263 26.8461C121.042 27.2621 122.007 27.4701 123.159 27.4701C124.226 27.4701 125.149 27.2675 125.927 26.8621C126.706 26.4568 127.346 25.9128 127.847 25.2301C128.349 24.5475 128.722 23.7528 128.967 22.8461C129.213 21.9395 129.335 20.9741 129.335 19.9501C129.335 19.0115 129.218 18.0888 128.983 17.1821C128.749 16.2755 128.386 15.4648 127.895 14.7501C127.405 14.0355 126.77 13.4595 125.991 13.0221C125.213 12.5848 124.269 12.3661 123.159 12.3661C122.071 12.3661 121.143 12.5795 120.375 13.0061C119.607 13.4328 118.983 13.9981 118.503 14.7021C118.023 15.4061 117.677 16.2115 117.463 17.1181C117.25 18.0248 117.143 18.9688 117.143 19.9501C117.143 20.9315 117.239 21.8755 117.431 22.7821C117.623 23.6888 117.949 24.4888 118.407 25.1821C118.866 25.8755 119.485 26.4301 120.263 26.8461ZM133.441 11.6941H134.657V28.1421H133.441V11.6941Z" fill="#FBFCFE"/>
<circle cx="19.1421" cy="5.00003" r="3" transform="rotate(45 19.1421 5.00003)" fill="#FBFCFE"/>
<circle cx="26.2133" cy="12.0711" r="3" transform="rotate(45 26.2133 12.0711)" fill="#FBFCFE"/>
<circle cx="33.2843" cy="19.1421" r="3" transform="rotate(45 33.2843 19.1421)" fill="#FBFCFE"/>
<circle cx="12.071" cy="12.0711" r="3" transform="rotate(45 12.071 12.0711)" fill="#FBFCFE"/>
<circle opacity="0.5" cx="19.1421" cy="19.1421" r="3" transform="rotate(45 19.1421 19.1421)" fill="#FBFCFE"/>
<circle opacity="0.5" cx="26.2133" cy="26.2132" r="3" transform="rotate(45 26.2133 26.2132)" fill="#FBFCFE"/>
<circle cx="5" cy="19.1421" r="3" transform="rotate(45 5 19.1421)" fill="#FBFCFE"/>
<circle opacity="0.5" cx="12.071" cy="26.2132" r="3" transform="rotate(45 12.071 26.2132)" fill="#FBFCFE"/>
<circle opacity="0.25" cx="19.1421" cy="33.2843" r="3" transform="rotate(45 19.1421 33.2843)" fill="#FBFCFE"/>
<path opacity="0.7" d="M200.215 25V14.155H204.205C204.995 14.155 205.703 14.2925 206.328 14.5675C206.953 14.8375 207.445 15.2375 207.805 15.7675C208.17 16.2975 208.353 16.945 208.353 17.71C208.353 18.43 208.193 19.045 207.873 19.555C207.553 20.065 207.103 20.455 206.523 20.725C205.948 20.995 205.27 21.13 204.49 21.13H202.42V25H200.215ZM202.398 19.435H204.43C204.98 19.435 205.43 19.26 205.78 18.91C206.13 18.555 206.305 18.1175 206.305 17.5975C206.305 17.0575 206.12 16.63 205.75 16.315C205.38 15.995 204.93 15.835 204.4 15.835H202.398V19.435ZM209.723 25V17.245H211.83V19.0825C211.955 18.6875 212.13 18.3425 212.355 18.0475C212.585 17.7475 212.863 17.515 213.188 17.35C213.513 17.18 213.88 17.095 214.29 17.095C214.36 17.095 214.425 17.1 214.485 17.11C214.55 17.115 214.598 17.125 214.628 17.14V19.225C214.583 19.205 214.528 19.1925 214.463 19.1875C214.403 19.1825 214.348 19.1775 214.298 19.1725C213.868 19.1375 213.5 19.15 213.195 19.21C212.89 19.27 212.643 19.3725 212.453 19.5175C212.263 19.6625 212.125 19.84 212.04 20.05C211.955 20.26 211.913 20.495 211.913 20.755V25H209.723ZM218.021 17.245V25H215.929V17.245H218.021ZM218.044 14.1625V16.135H215.914V14.1625H218.044ZM223.328 17.095C223.978 17.095 224.538 17.2275 225.008 17.4925C225.483 17.7575 225.856 18.115 226.126 18.565C226.401 19.015 226.558 19.5175 226.598 20.0725H224.776C224.741 19.8675 224.668 19.665 224.558 19.465C224.448 19.26 224.293 19.0925 224.093 18.9625C223.893 18.8275 223.643 18.76 223.343 18.76C222.833 18.76 222.418 18.9575 222.098 19.3525C221.783 19.7425 221.626 20.3375 221.626 21.1375C221.626 21.8925 221.781 22.4925 222.091 22.9375C222.401 23.3775 222.833 23.5975 223.388 23.5975C223.683 23.5975 223.928 23.525 224.123 23.38C224.323 23.235 224.478 23.0625 224.588 22.8625C224.698 22.6575 224.768 22.4675 224.798 22.2925H226.576C226.541 22.8275 226.386 23.3125 226.111 23.7475C225.836 24.1775 225.461 24.52 224.986 24.775C224.516 25.025 223.963 25.15 223.328 25.15C222.608 25.15 221.966 24.99 221.401 24.67C220.836 24.35 220.391 23.8925 220.066 23.2975C219.746 22.6975 219.586 21.9825 219.586 21.1525C219.586 20.3525 219.741 19.6475 220.051 19.0375C220.361 18.4275 220.796 17.9525 221.356 17.6125C221.921 17.2675 222.578 17.095 223.328 17.095ZM230.311 17.245V25H228.219V17.245H230.311ZM230.334 14.1625V16.135H228.204V14.1625H230.334ZM232.34 25V17.245H234.492V18.34C234.612 18.15 234.767 17.9675 234.957 17.7925C235.152 17.6125 235.397 17.465 235.692 17.35C235.987 17.235 236.337 17.1775 236.742 17.1775C237.217 17.1775 237.66 17.27 238.07 17.455C238.485 17.64 238.82 17.9325 239.075 18.3325C239.33 18.7275 239.457 19.245 239.457 19.885V25H237.267V20.155C237.267 19.735 237.142 19.42 236.892 19.21C236.642 19 236.337 18.895 235.977 18.895C235.737 18.895 235.505 18.9375 235.28 19.0225C235.06 19.1075 234.88 19.235 234.74 19.405C234.6 19.575 234.53 19.785 234.53 20.035V25H232.34ZM244.824 27.565C243.444 27.565 242.394 27.39 241.674 27.04C240.959 26.69 240.601 26.23 240.601 25.66C240.601 25.395 240.671 25.1725 240.811 24.9925C240.951 24.8125 241.114 24.67 241.299 24.565C241.489 24.455 241.661 24.3725 241.816 24.3175C241.976 24.2575 242.074 24.2175 242.109 24.1975C242.029 24.1525 241.914 24.0875 241.764 24.0025C241.614 23.9125 241.474 23.7925 241.344 23.6425C241.219 23.4875 241.156 23.2875 241.156 23.0425C241.156 22.7675 241.286 22.5125 241.546 22.2775C241.811 22.0425 242.211 21.88 242.746 21.79C242.236 21.55 241.849 21.225 241.584 20.815C241.319 20.405 241.186 19.985 241.186 19.555C241.186 19.045 241.346 18.6075 241.666 18.2425C241.986 17.8775 242.421 17.6 242.971 17.41C243.526 17.22 244.154 17.125 244.854 17.125C245.389 17.125 245.826 17.1825 246.166 17.2975C246.506 17.4075 246.821 17.5525 247.111 17.7325C247.226 17.6875 247.379 17.63 247.569 17.56C247.759 17.485 247.964 17.405 248.184 17.32C248.404 17.23 248.619 17.1425 248.829 17.0575C249.039 16.9675 249.226 16.8875 249.391 16.8175L249.384 18.5125L248.041 18.73C248.096 18.865 248.139 19.01 248.169 19.165C248.199 19.32 248.214 19.4475 248.214 19.5475C248.214 19.9975 248.081 20.4175 247.816 20.8075C247.556 21.1975 247.164 21.5125 246.639 21.7525C246.119 21.9925 245.474 22.1125 244.704 22.1125C244.609 22.1125 244.481 22.11 244.321 22.105C244.166 22.1 244.039 22.0925 243.939 22.0825C243.644 22.0975 243.441 22.135 243.331 22.195C243.221 22.255 243.166 22.325 243.166 22.405C243.166 22.525 243.279 22.605 243.504 22.645C243.729 22.68 244.069 22.7125 244.524 22.7425C244.684 22.7525 244.906 22.765 245.191 22.78C245.476 22.795 245.791 22.815 246.136 22.84C247.086 22.905 247.794 23.14 248.259 23.545C248.729 23.945 248.964 24.45 248.964 25.06C248.964 25.785 248.619 26.3825 247.929 26.8525C247.244 27.3275 246.209 27.565 244.824 27.565ZM245.176 26.3425C245.786 26.3425 246.221 26.2675 246.481 26.1175C246.741 25.9675 246.871 25.7525 246.871 25.4725C246.871 25.2375 246.771 25.0475 246.571 24.9025C246.371 24.7525 246.079 24.665 245.694 24.64L243.916 24.52C243.686 24.51 243.481 24.545 243.301 24.625C243.126 24.705 242.989 24.815 242.889 24.955C242.794 25.095 242.746 25.245 242.746 25.405C242.746 25.73 242.944 25.9675 243.339 26.1175C243.734 26.2675 244.346 26.3425 245.176 26.3425ZM244.764 20.89C245.179 20.89 245.511 20.7775 245.761 20.5525C246.016 20.3225 246.144 20.0125 246.144 19.6225C246.144 19.2175 246.016 18.8925 245.761 18.6475C245.511 18.4025 245.179 18.28 244.764 18.28C244.354 18.28 244.019 18.4025 243.759 18.6475C243.504 18.8925 243.376 19.2175 243.376 19.6225C243.376 20.0075 243.499 20.315 243.744 20.545C243.994 20.775 244.334 20.89 244.764 20.89Z" fill="#FBFCFE"/>
<path opacity="0.7" d="M290.413 25L294.298 14.155H296.608L300.485 25H298.302L297.418 22.4875H293.518L292.61 25H290.413ZM294.005 20.575H296.893L295.46 16.27L294.005 20.575ZM306.156 25.15C305.771 25.15 305.438 25.1 305.158 25C304.878 24.9 304.641 24.7675 304.446 24.6025C304.251 24.4325 304.091 24.245 303.966 24.04C303.841 23.835 303.743 23.625 303.673 23.41L303.426 25H301.836V13.855H304.033V18.295C304.128 18.13 304.251 17.975 304.401 17.83C304.551 17.685 304.726 17.5575 304.926 17.4475C305.126 17.3375 305.346 17.2525 305.586 17.1925C305.831 17.1275 306.091 17.095 306.366 17.095C307.331 17.095 308.086 17.4425 308.631 18.1375C309.181 18.8325 309.456 19.8125 309.456 21.0775C309.456 21.8975 309.331 22.6125 309.081 23.2225C308.831 23.8325 308.461 24.3075 307.971 24.6475C307.481 24.9825 306.876 25.15 306.156 25.15ZM305.676 23.575C306.146 23.575 306.536 23.3825 306.846 22.9975C307.161 22.6075 307.318 21.9575 307.318 21.0475C307.318 20.2425 307.168 19.6475 306.868 19.2625C306.573 18.8775 306.171 18.685 305.661 18.685C305.296 18.685 304.993 18.7725 304.753 18.9475C304.513 19.1175 304.333 19.3775 304.213 19.7275C304.098 20.0775 304.038 20.5175 304.033 21.0475C304.033 21.9625 304.168 22.6125 304.438 22.9975C304.713 23.3825 305.126 23.575 305.676 23.575ZM314.248 25.15C313.488 25.15 312.825 24.9875 312.26 24.6625C311.7 24.3375 311.265 23.8775 310.955 23.2825C310.65 22.6875 310.498 21.9825 310.498 21.1675C310.498 20.3525 310.65 19.64 310.955 19.03C311.265 18.42 311.7 17.945 312.26 17.605C312.825 17.265 313.49 17.095 314.255 17.095C315.02 17.095 315.683 17.2625 316.243 17.5975C316.803 17.9275 317.235 18.3975 317.54 19.0075C317.845 19.6175 317.998 20.3375 317.998 21.1675C317.998 21.9475 317.848 22.6375 317.548 23.2375C317.253 23.8325 316.825 24.3 316.265 24.64C315.71 24.98 315.038 25.15 314.248 25.15ZM314.255 23.5225C314.64 23.5225 314.95 23.41 315.185 23.185C315.42 22.96 315.59 22.665 315.695 22.3C315.805 21.93 315.86 21.5275 315.86 21.0925C315.86 20.6825 315.81 20.295 315.71 19.93C315.615 19.565 315.45 19.27 315.215 19.045C314.98 18.82 314.66 18.7075 314.255 18.7075C313.87 18.7075 313.558 18.815 313.318 19.03C313.083 19.24 312.91 19.5275 312.8 19.8925C312.69 20.2525 312.635 20.6525 312.635 21.0925C312.635 21.4975 312.685 21.8875 312.785 22.2625C312.885 22.6325 313.053 22.935 313.288 23.17C313.523 23.405 313.845 23.5225 314.255 23.5225ZM322.213 25.15C321.853 25.15 321.498 25.095 321.148 24.985C320.803 24.875 320.488 24.7125 320.203 24.4975C319.918 24.2825 319.688 24.0175 319.513 23.7025C319.343 23.3875 319.258 23.0225 319.258 22.6075V17.245H321.448V22.33C321.448 22.69 321.565 22.985 321.8 23.215C322.035 23.445 322.38 23.56 322.835 23.56C323.265 23.56 323.605 23.45 323.855 23.23C324.11 23.005 324.238 22.6925 324.238 22.2925V17.245H326.405V25H324.755L324.5 23.4625C324.41 23.9175 324.24 24.2675 323.99 24.5125C323.745 24.7525 323.463 24.9175 323.143 25.0075C322.828 25.1025 322.518 25.15 322.213 25.15ZM332.913 18.7675H331.188L331.203 22.9C331.203 23.09 331.226 23.2325 331.271 23.3275C331.321 23.4175 331.396 23.4775 331.496 23.5075C331.601 23.5325 331.733 23.545 331.893 23.545H332.936V24.895C332.836 24.94 332.678 24.9825 332.463 25.0225C332.253 25.0625 331.958 25.0825 331.578 25.0825C330.898 25.0825 330.371 24.995 329.996 24.82C329.626 24.645 329.368 24.4 329.223 24.085C329.078 23.77 329.006 23.405 329.006 22.99V18.7675H327.746V17.245H329.081L329.628 14.905H331.188V17.2375H332.913V18.7675Z" fill="#FBFCFE"/>
<path opacity="0.7" d="M379.633 14.005C380.448 14.005 381.173 14.17 381.808 14.5C382.448 14.825 382.963 15.27 383.353 15.835C383.748 16.4 383.98 17.0375 384.05 17.7475H381.755C381.685 17.3725 381.558 17.04 381.373 16.75C381.188 16.455 380.945 16.225 380.645 16.06C380.345 15.89 379.985 15.805 379.565 15.805C379.06 15.805 378.625 15.9275 378.26 16.1725C377.895 16.4175 377.615 16.8125 377.42 17.3575C377.225 17.9025 377.128 18.6225 377.128 19.5175C377.128 20.8675 377.343 21.845 377.773 22.45C378.208 23.05 378.805 23.35 379.565 23.35C379.985 23.35 380.345 23.255 380.645 23.065C380.945 22.87 381.188 22.615 381.373 22.3C381.558 21.98 381.685 21.63 381.755 21.25H384.05C383.985 21.765 383.86 22.2575 383.675 22.7275C383.49 23.1925 383.228 23.6075 382.888 23.9725C382.548 24.3375 382.11 24.625 381.575 24.835C381.04 25.045 380.393 25.15 379.633 25.15C378.623 25.15 377.75 24.915 377.015 24.445C376.28 23.975 375.713 23.315 375.313 22.465C374.918 21.615 374.72 20.6225 374.72 19.4875C374.72 18.3475 374.918 17.37 375.313 16.555C375.708 15.735 376.273 15.105 377.008 14.665C377.743 14.225 378.618 14.005 379.633 14.005ZM389.063 25.15C388.303 25.15 387.641 24.9875 387.076 24.6625C386.516 24.3375 386.081 23.8775 385.771 23.2825C385.466 22.6875 385.313 21.9825 385.313 21.1675C385.313 20.3525 385.466 19.64 385.771 19.03C386.081 18.42 386.516 17.945 387.076 17.605C387.641 17.265 388.306 17.095 389.071 17.095C389.836 17.095 390.498 17.2625 391.058 17.5975C391.618 17.9275 392.051 18.3975 392.356 19.0075C392.661 19.6175 392.813 20.3375 392.813 21.1675C392.813 21.9475 392.663 22.6375 392.363 23.2375C392.068 23.8325 391.641 24.3 391.081 24.64C390.526 24.98 389.853 25.15 389.063 25.15ZM389.071 23.5225C389.456 23.5225 389.766 23.41 390.001 23.185C390.236 22.96 390.406 22.665 390.511 22.3C390.621 21.93 390.676 21.5275 390.676 21.0925C390.676 20.6825 390.626 20.295 390.526 19.93C390.431 19.565 390.266 19.27 390.031 19.045C389.796 18.82 389.476 18.7075 389.071 18.7075C388.686 18.7075 388.373 18.815 388.133 19.03C387.898 19.24 387.726 19.5275 387.616 19.8925C387.506 20.2525 387.451 20.6525 387.451 21.0925C387.451 21.4975 387.501 21.8875 387.601 22.2625C387.701 22.6325 387.868 22.935 388.103 23.17C388.338 23.405 388.661 23.5225 389.071 23.5225ZM394.273 25V17.245H396.426V18.34C396.546 18.15 396.701 17.9675 396.891 17.7925C397.086 17.6125 397.331 17.465 397.626 17.35C397.921 17.235 398.271 17.1775 398.676 17.1775C399.151 17.1775 399.593 17.27 400.003 17.455C400.418 17.64 400.753 17.9325 401.008 18.3325C401.263 18.7275 401.391 19.245 401.391 19.885V25H399.201V20.155C399.201 19.735 399.076 19.42 398.826 19.21C398.576 19 398.271 18.895 397.911 18.895C397.671 18.895 397.438 18.9375 397.213 19.0225C396.993 19.1075 396.813 19.235 396.673 19.405C396.533 19.575 396.463 19.785 396.463 20.035V25H394.273ZM407.538 18.7675H405.813L405.828 22.9C405.828 23.09 405.851 23.2325 405.896 23.3275C405.946 23.4175 406.021 23.4775 406.121 23.5075C406.226 23.5325 406.358 23.545 406.518 23.545H407.561V24.895C407.461 24.94 407.303 24.9825 407.088 25.0225C406.878 25.0625 406.583 25.0825 406.203 25.0825C405.523 25.0825 404.996 24.995 404.621 24.82C404.251 24.645 403.993 24.4 403.848 24.085C403.703 23.77 403.631 23.405 403.631 22.99V18.7675H402.371V17.245H403.706L404.253 14.905H405.813V17.2375H407.538V18.7675ZM411.377 25.15C410.882 25.15 410.437 25.0575 410.042 24.8725C409.647 24.6875 409.334 24.42 409.104 24.07C408.874 23.715 408.759 23.285 408.759 22.78C408.759 21.93 409.077 21.285 409.712 20.845C410.347 20.4 411.349 20.17 412.719 20.155L413.687 20.14V19.675C413.687 19.32 413.582 19.0475 413.372 18.8575C413.167 18.6625 412.847 18.5675 412.412 18.5725C412.092 18.5775 411.787 18.6525 411.497 18.7975C411.212 18.9425 411.017 19.195 410.912 19.555H409.089C409.119 18.995 409.282 18.535 409.577 18.175C409.872 17.81 410.272 17.54 410.777 17.365C411.287 17.185 411.864 17.095 412.509 17.095C413.304 17.095 413.942 17.195 414.422 17.395C414.902 17.59 415.249 17.8725 415.464 18.2425C415.679 18.6075 415.787 19.0425 415.787 19.5475V25H413.957L413.777 23.665C413.512 24.225 413.179 24.6125 412.779 24.8275C412.384 25.0425 411.917 25.15 411.377 25.15ZM412.112 23.71C412.312 23.71 412.504 23.675 412.689 23.605C412.879 23.53 413.047 23.4325 413.192 23.3125C413.342 23.1875 413.462 23.0475 413.552 22.8925C413.642 22.7375 413.687 22.5775 413.687 22.4125V21.265L412.899 21.28C412.534 21.285 412.194 21.33 411.879 21.415C411.564 21.495 411.309 21.6275 411.114 21.8125C410.924 21.9975 410.829 22.2475 410.829 22.5625C410.829 22.9225 410.954 23.205 411.204 23.41C411.454 23.61 411.757 23.71 412.112 23.71ZM421.048 17.095C421.698 17.095 422.258 17.2275 422.728 17.4925C423.203 17.7575 423.576 18.115 423.846 18.565C424.121 19.015 424.278 19.5175 424.318 20.0725H422.496C422.461 19.8675 422.388 19.665 422.278 19.465C422.168 19.26 422.013 19.0925 421.813 18.9625C421.613 18.8275 421.363 18.76 421.063 18.76C420.553 18.76 420.138 18.9575 419.818 19.3525C419.503 19.7425 419.346 20.3375 419.346 21.1375C419.346 21.8925 419.501 22.4925 419.811 22.9375C420.121 23.3775 420.553 23.5975 421.108 23.5975C421.403 23.5975 421.648 23.525 421.843 23.38C422.043 23.235 422.198 23.0625 422.308 22.8625C422.418 22.6575 422.488 22.4675 422.518 22.2925H424.296C424.261 22.8275 424.106 23.3125 423.831 23.7475C423.556 24.1775 423.181 24.52 422.706 24.775C422.236 25.025 421.683 25.15 421.048 25.15C420.328 25.15 419.686 24.99 419.121 24.67C418.556 24.35 418.111 23.8925 417.786 23.2975C417.466 22.6975 417.306 21.9825 417.306 21.1525C417.306 20.3525 417.461 19.6475 417.771 19.0375C418.081 18.4275 418.516 17.9525 419.076 17.6125C419.641 17.2675 420.298 17.095 421.048 17.095ZM430.317 18.7675H428.592L428.607 22.9C428.607 23.09 428.629 23.2325 428.674 23.3275C428.724 23.4175 428.799 23.4775 428.899 23.5075C429.004 23.5325 429.137 23.545 429.297 23.545H430.339V24.895C430.239 24.94 430.082 24.9825 429.867 25.0225C429.657 25.0625 429.362 25.0825 428.982 25.0825C428.302 25.0825 427.774 24.995 427.399 24.82C427.029 24.645 426.772 24.4 426.627 24.085C426.482 23.77 426.409 23.405 426.409 22.99V18.7675H425.149V17.245H426.484L427.032 14.905H428.592V17.2375H430.317V18.7675Z" fill="#FBFCFE"/>
</svg>
